<svg width="276" height="141" viewBox="0 0 276 141" fill="none" xmlns="http://www.w3.org/2000/svg">
<ellipse cx="145.017" cy="103.789" rx="37.3754" ry="37.2106" fill="white"/>
<ellipse cx="90.8638" cy="105.443" rx="35.7143" ry="35.5568" fill="white"/>
<ellipse cx="167.954" cy="55.9294" rx="37.3754" ry="37.2106" fill="white"/>
<ellipse cx="112.126" cy="66.5788" rx="37.3754" ry="37.2106" fill="white"/>
<ellipse cx="112.641" cy="35.5568" rx="35.7143" ry="35.5568" fill="white"/>
<circle cx="66.9104" cy="66.5568" r="40" fill="white"/>
<ellipse cx="37.3754" cy="103.789" rx="37.3754" ry="37.2106" fill="white"/>
<circle cx="210.5" cy="93.5" r="47.5" fill="white"/>
<path d="M50.735 71.5H65.045C68.465 71.5 71.48 72.16 74.09 73.48C76.73 74.77 78.77 76.6 80.21 78.97C81.68 81.34 82.415 84.1 82.415 87.25C82.415 90.4 81.68 93.16 80.21 95.53C78.77 97.9 76.73 99.745 74.09 101.065C71.48 102.355 68.465 103 65.045 103H50.735V71.5ZM64.685 97.015C67.835 97.015 70.34 96.145 72.2 94.405C74.09 92.635 75.035 90.25 75.035 87.25C75.035 84.25 74.09 81.88 72.2 80.14C70.34 78.37 67.835 77.485 64.685 77.485H58.025V97.015H64.685ZM94.1227 81.985C94.9627 80.815 96.0877 79.93 97.4977 79.33C98.9377 78.73 100.588 78.43 102.448 78.43V84.91C101.668 84.85 101.143 84.82 100.873 84.82C98.8627 84.82 97.2877 85.39 96.1477 86.53C95.0077 87.64 94.4377 89.32 94.4377 91.57V103H87.4177V78.79H94.1227V81.985ZM130.117 90.985C130.117 91.075 130.072 91.705 129.982 92.875H111.667C111.997 94.375 112.777 95.56 114.007 96.43C115.237 97.3 116.767 97.735 118.597 97.735C119.857 97.735 120.967 97.555 121.927 97.195C122.917 96.805 123.832 96.205 124.672 95.395L128.407 99.445C126.127 102.055 122.797 103.36 118.417 103.36C115.687 103.36 113.272 102.835 111.172 101.785C109.072 100.705 107.452 99.22 106.312 97.33C105.172 95.44 104.602 93.295 104.602 90.895C104.602 88.525 105.157 86.395 106.267 84.505C107.407 82.585 108.952 81.1 110.902 80.05C112.882 78.97 115.087 78.43 117.517 78.43C119.887 78.43 122.032 78.94 123.952 79.96C125.872 80.98 127.372 82.45 128.452 84.37C129.562 86.26 130.117 88.465 130.117 90.985ZM117.562 83.74C115.972 83.74 114.637 84.19 113.557 85.09C112.477 85.99 111.817 87.22 111.577 88.78H123.502C123.262 87.25 122.602 86.035 121.522 85.135C120.442 84.205 119.122 83.74 117.562 83.74ZM143.897 78.43C147.647 78.43 150.527 79.33 152.537 81.13C154.547 82.9 155.552 85.585 155.552 89.185V103H148.982V99.985C147.662 102.235 145.202 103.36 141.602 103.36C139.742 103.36 138.122 103.045 136.742 102.415C135.392 101.785 134.357 100.915 133.637 99.805C132.917 98.695 132.557 97.435 132.557 96.025C132.557 93.775 133.397 92.005 135.077 90.715C136.787 89.425 139.412 88.78 142.952 88.78H148.532C148.532 87.25 148.067 86.08 147.137 85.27C146.207 84.43 144.812 84.01 142.952 84.01C141.662 84.01 140.387 84.22 139.127 84.64C137.897 85.03 136.847 85.57 135.977 86.26L133.457 81.355C134.777 80.425 136.352 79.705 138.182 79.195C140.042 78.685 141.947 78.43 143.897 78.43ZM143.357 98.635C144.557 98.635 145.622 98.365 146.552 97.825C147.482 97.255 148.142 96.43 148.532 95.35V92.875H143.717C140.837 92.875 139.397 93.82 139.397 95.71C139.397 96.61 139.742 97.33 140.432 97.87C141.152 98.38 142.127 98.635 143.357 98.635ZM192.91 78.43C195.94 78.43 198.34 79.33 200.11 81.13C201.91 82.9 202.81 85.57 202.81 89.14V103H195.79V90.22C195.79 88.3 195.385 86.875 194.575 85.945C193.795 84.985 192.67 84.505 191.2 84.505C189.55 84.505 188.245 85.045 187.285 86.125C186.325 87.175 185.845 88.75 185.845 90.85V103H178.825V90.22C178.825 86.41 177.295 84.505 174.235 84.505C172.615 84.505 171.325 85.045 170.365 86.125C169.405 87.175 168.925 88.75 168.925 90.85V103H161.905V78.79H168.61V81.58C169.51 80.56 170.605 79.78 171.895 79.24C173.215 78.7 174.655 78.43 176.215 78.43C177.925 78.43 179.47 78.775 180.85 79.465C182.23 80.125 183.34 81.1 184.18 82.39C185.17 81.13 186.415 80.155 187.915 79.465C189.445 78.775 191.11 78.43 192.91 78.43ZM217.247 103.36C215.237 103.36 213.272 103.12 211.352 102.64C209.432 102.13 207.902 101.5 206.762 100.75L209.102 95.71C210.182 96.4 211.487 96.97 213.017 97.42C214.547 97.84 216.047 98.05 217.517 98.05C220.487 98.05 221.972 97.315 221.972 95.845C221.972 95.155 221.567 94.66 220.757 94.36C219.947 94.06 218.702 93.805 217.022 93.595C215.042 93.295 213.407 92.95 212.117 92.56C210.827 92.17 209.702 91.48 208.742 90.49C207.812 89.5 207.347 88.09 207.347 86.26C207.347 84.73 207.782 83.38 208.652 82.21C209.552 81.01 210.842 80.08 212.522 79.42C214.232 78.76 216.242 78.43 218.552 78.43C220.262 78.43 221.957 78.625 223.637 79.015C225.347 79.375 226.757 79.885 227.867 80.545L225.527 85.54C223.397 84.34 221.072 83.74 218.552 83.74C217.052 83.74 215.927 83.95 215.177 84.37C214.427 84.79 214.052 85.33 214.052 85.99C214.052 86.74 214.457 87.265 215.267 87.565C216.077 87.865 217.367 88.15 219.137 88.42C221.117 88.75 222.737 89.11 223.997 89.5C225.257 89.86 226.352 90.535 227.282 91.525C228.212 92.515 228.677 93.895 228.677 95.665C228.677 97.165 228.227 98.5 227.327 99.67C226.427 100.84 225.107 101.755 223.367 102.415C221.657 103.045 219.617 103.36 217.247 103.36Z" fill="black"/>
</svg>
