<svg width="375" height="102" viewBox="0 0 375 102" fill="none" xmlns="http://www.w3.org/2000/svg">
<path d="M146.16 44.3063C147.275 41.8701 147.9 39.2062 147.9 36.4286C147.9 24.3616 136.209 14.5714 121.8 14.5714C116.444 14.5714 111.442 15.9375 107.309 18.2598C99.7781 7.33125 85.7222 0 69.6 0C45.5662 0 26.1 16.3018 26.1 36.4286C26.1 37.0433 26.1272 37.658 26.1544 38.2728C10.9294 42.758 0 54.9161 0 69.2143C0 87.3147 17.5359 102 39.15 102H139.2C158.422 102 174 88.954 174 72.8571C174 58.7638 162.037 46.9929 146.16 44.3063Z" fill="white"/>
<path d="M77.735 37.5H92.045C95.465 37.5 98.48 38.16 101.09 39.48C103.73 40.77 105.77 42.6 107.21 44.97C108.68 47.34 109.415 50.1 109.415 53.25C109.415 56.4 108.68 59.16 107.21 61.53C105.77 63.9 103.73 65.745 101.09 67.065C98.48 68.355 95.465 69 92.045 69H77.735V37.5ZM91.685 63.015C94.835 63.015 97.34 62.145 99.2 60.405C101.09 58.635 102.035 56.25 102.035 53.25C102.035 50.25 101.09 47.88 99.2 46.14C97.34 44.37 94.835 43.485 91.685 43.485H85.025V63.015H91.685ZM121.123 47.985C121.963 46.815 123.088 45.93 124.498 45.33C125.938 44.73 127.588 44.43 129.448 44.43V50.91C128.668 50.85 128.143 50.82 127.873 50.82C125.863 50.82 124.288 51.39 123.148 52.53C122.008 53.64 121.438 55.32 121.438 57.57V69H114.418V44.79H121.123V47.985ZM157.117 56.985C157.117 57.075 157.072 57.705 156.982 58.875H138.667C138.997 60.375 139.777 61.56 141.007 62.43C142.237 63.3 143.767 63.735 145.597 63.735C146.857 63.735 147.967 63.555 148.927 63.195C149.917 62.805 150.832 62.205 151.672 61.395L155.407 65.445C153.127 68.055 149.797 69.36 145.417 69.36C142.687 69.36 140.272 68.835 138.172 67.785C136.072 66.705 134.452 65.22 133.312 63.33C132.172 61.44 131.602 59.295 131.602 56.895C131.602 54.525 132.157 52.395 133.267 50.505C134.407 48.585 135.952 47.1 137.902 46.05C139.882 44.97 142.087 44.43 144.517 44.43C146.887 44.43 149.032 44.94 150.952 45.96C152.872 46.98 154.372 48.45 155.452 50.37C156.562 52.26 157.117 54.465 157.117 56.985ZM144.562 49.74C142.972 49.74 141.637 50.19 140.557 51.09C139.477 51.99 138.817 53.22 138.577 54.78H150.502C150.262 53.25 149.602 52.035 148.522 51.135C147.442 50.205 146.122 49.74 144.562 49.74Z" fill="black"/>
<path d="M171.556 44.43C175.306 44.43 178.186 45.33 180.196 47.13C182.206 48.9 183.211 51.585 183.211 55.185V69H176.641V65.985C175.321 68.235 172.861 69.36 169.261 69.36C167.401 69.36 165.781 69.045 164.401 68.415C163.051 67.785 162.016 66.915 161.296 65.805C160.576 64.695 160.216 63.435 160.216 62.025C160.216 59.775 161.056 58.005 162.736 56.715C164.446 55.425 167.071 54.78 170.611 54.78H176.191C176.191 53.25 175.726 52.08 174.796 51.27C173.866 50.43 172.471 50.01 170.611 50.01C169.321 50.01 168.046 50.22 166.786 50.64C165.556 51.03 164.506 51.57 163.636 52.26L161.116 47.355C162.436 46.425 164.011 45.705 165.841 45.195C167.701 44.685 169.606 44.43 171.556 44.43ZM171.016 64.635C172.216 64.635 173.281 64.365 174.211 63.825C175.141 63.255 175.801 62.43 176.191 61.35V58.875H171.376C168.496 58.875 167.056 59.82 167.056 61.71C167.056 62.61 167.401 63.33 168.091 63.87C168.811 64.38 169.786 64.635 171.016 64.635ZM220.569 44.43C223.599 44.43 225.999 45.33 227.769 47.13C229.569 48.9 230.469 51.57 230.469 55.14V69H223.449V56.22C223.449 54.3 223.044 52.875 222.234 51.945C221.454 50.985 220.329 50.505 218.859 50.505C217.209 50.505 215.904 51.045 214.944 52.125C213.984 53.175 213.504 54.75 213.504 56.85V69H206.484V56.22C206.484 52.41 204.954 50.505 201.894 50.505C200.274 50.505 198.984 51.045 198.024 52.125C197.064 53.175 196.584 54.75 196.584 56.85V69H189.564V44.79H196.269V47.58C197.169 46.56 198.264 45.78 199.554 45.24C200.874 44.7 202.314 44.43 203.874 44.43C205.584 44.43 207.129 44.775 208.509 45.465C209.889 46.125 210.999 47.1 211.839 48.39C212.829 47.13 214.074 46.155 215.574 45.465C217.104 44.775 218.769 44.43 220.569 44.43ZM244.906 69.36C242.896 69.36 240.931 69.12 239.011 68.64C237.091 68.13 235.561 67.5 234.421 66.75L236.761 61.71C237.841 62.4 239.146 62.97 240.676 63.42C242.206 63.84 243.706 64.05 245.176 64.05C248.146 64.05 249.631 63.315 249.631 61.845C249.631 61.155 249.226 60.66 248.416 60.36C247.606 60.06 246.361 59.805 244.681 59.595C242.701 59.295 241.066 58.95 239.776 58.56C238.486 58.17 237.361 57.48 236.401 56.49C235.471 55.5 235.006 54.09 235.006 52.26C235.006 50.73 235.441 49.38 236.311 48.21C237.211 47.01 238.501 46.08 240.181 45.42C241.891 44.76 243.901 44.43 246.211 44.43C247.921 44.43 249.616 44.625 251.296 45.015C253.006 45.375 254.416 45.885 255.526 46.545L253.186 51.54C251.056 50.34 248.731 49.74 246.211 49.74C244.711 49.74 243.586 49.95 242.836 50.37C242.086 50.79 241.711 51.33 241.711 51.99C241.711 52.74 242.116 53.265 242.926 53.565C243.736 53.865 245.026 54.15 246.796 54.42C248.776 54.75 250.396 55.11 251.656 55.5C252.916 55.86 254.011 56.535 254.941 57.525C255.871 58.515 256.336 59.895 256.336 61.665C256.336 63.165 255.886 64.5 254.986 65.67C254.086 66.84 252.766 67.755 251.026 68.415C249.316 69.045 247.276 69.36 244.906 69.36ZM272.368 69.36C269.788 69.36 267.463 68.835 265.393 67.785C263.353 66.705 261.748 65.22 260.578 63.33C259.438 61.44 258.868 59.295 258.868 56.895C258.868 54.495 259.438 52.35 260.578 50.46C261.748 48.57 263.353 47.1 265.393 46.05C267.463 44.97 269.788 44.43 272.368 44.43C274.918 44.43 277.138 44.97 279.028 46.05C280.948 47.1 282.343 48.615 283.213 50.595L277.768 53.52C276.508 51.3 274.693 50.19 272.323 50.19C270.493 50.19 268.978 50.79 267.778 51.99C266.578 53.19 265.978 54.825 265.978 56.895C265.978 58.965 266.578 60.6 267.778 61.8C268.978 63 270.493 63.6 272.323 63.6C274.723 63.6 276.538 62.49 277.768 60.27L283.213 63.24C282.343 65.16 280.948 66.66 279.028 67.74C277.138 68.82 274.918 69.36 272.368 69.36ZM297.02 44.43C300.77 44.43 303.65 45.33 305.66 47.13C307.67 48.9 308.675 51.585 308.675 55.185V69H302.105V65.985C300.785 68.235 298.325 69.36 294.725 69.36C292.865 69.36 291.245 69.045 289.865 68.415C288.515 67.785 287.48 66.915 286.76 65.805C286.04 64.695 285.68 63.435 285.68 62.025C285.68 59.775 286.52 58.005 288.2 56.715C289.91 55.425 292.535 54.78 296.075 54.78H301.655C301.655 53.25 301.19 52.08 300.26 51.27C299.33 50.43 297.935 50.01 296.075 50.01C294.785 50.01 293.51 50.22 292.25 50.64C291.02 51.03 289.97 51.57 289.1 52.26L286.58 47.355C287.9 46.425 289.475 45.705 291.305 45.195C293.165 44.685 295.07 44.43 297.02 44.43ZM296.48 64.635C297.68 64.635 298.745 64.365 299.675 63.825C300.605 63.255 301.265 62.43 301.655 61.35V58.875H296.84C293.96 58.875 292.52 59.82 292.52 61.71C292.52 62.61 292.865 63.33 293.555 63.87C294.275 64.38 295.25 64.635 296.48 64.635ZM329.338 44.43C331.588 44.43 333.628 44.955 335.458 46.005C337.318 47.025 338.773 48.48 339.823 50.37C340.873 52.23 341.398 54.405 341.398 56.895C341.398 59.385 340.873 61.575 339.823 63.465C338.773 65.325 337.318 66.78 335.458 67.83C333.628 68.85 331.588 69.36 329.338 69.36C326.248 69.36 323.818 68.385 322.048 66.435V77.73H315.028V44.79H321.733V47.58C323.473 45.48 326.008 44.43 329.338 44.43ZM328.123 63.6C329.923 63.6 331.393 63 332.533 61.8C333.703 60.57 334.288 58.935 334.288 56.895C334.288 54.855 333.703 53.235 332.533 52.035C331.393 50.805 329.923 50.19 328.123 50.19C326.323 50.19 324.838 50.805 323.668 52.035C322.528 53.235 321.958 54.855 321.958 56.895C321.958 58.935 322.528 60.57 323.668 61.8C324.838 63 326.323 63.6 328.123 63.6ZM369.812 56.985C369.812 57.075 369.767 57.705 369.677 58.875H351.362C351.692 60.375 352.472 61.56 353.702 62.43C354.932 63.3 356.462 63.735 358.292 63.735C359.552 63.735 360.662 63.555 361.622 63.195C362.612 62.805 363.527 62.205 364.367 61.395L368.102 65.445C365.822 68.055 362.492 69.36 358.112 69.36C355.382 69.36 352.967 68.835 350.867 67.785C348.767 66.705 347.147 65.22 346.007 63.33C344.867 61.44 344.297 59.295 344.297 56.895C344.297 54.525 344.852 52.395 345.962 50.505C347.102 48.585 348.647 47.1 350.597 46.05C352.577 44.97 354.782 44.43 357.212 44.43C359.582 44.43 361.727 44.94 363.647 45.96C365.567 46.98 367.067 48.45 368.147 50.37C369.257 52.26 369.812 54.465 369.812 56.985ZM357.257 49.74C355.667 49.74 354.332 50.19 353.252 51.09C352.172 51.99 351.512 53.22 351.272 54.78H363.197C362.957 53.25 362.297 52.035 361.217 51.135C360.137 50.205 358.817 49.74 357.257 49.74Z" fill="white"/>
<path d="M167 56V55L170 59L168 59.5L167 61V56Z" fill="black"/>
<path d="M164 56L167 55V56H166H164Z" fill="black"/>
<path d="M162.5 57L164 56V59H161L161.5 58L162.5 57Z" fill="black"/>
<rect x="164" y="56" width="3" height="12" fill="black"/>
<path d="M165 68H166V69L165 68.5V68Z" fill="black"/>
<path d="M163 67.5L165 68L166 69L164.5 68.5L163 67.5Z" fill="black"/>
<path d="M166 68H167L168 69.5L166 69V68Z" fill="black"/>
<rect x="167" y="64" width="1" height="1" fill="black"/>
<path d="M167 62L168 64L169.5 64.5H171H172H173V69L172 69.5H170H168L167 69V62Z" fill="black"/>
<rect x="161" y="59" width="3" height="6" fill="black"/>
<rect x="163" y="65" width="1" height="1" fill="black"/>
<path d="M163 67H164V68L163 67.5V67Z" fill="black"/>
<path d="M161 65H162V66H161.5L161 65Z" fill="black"/>
<path d="M161.5 66H163V67.5L162 67L161.5 66Z" fill="black"/>
<rect x="163" y="66" width="1" height="1" fill="black"/>
<rect x="162" y="65" width="1" height="1" fill="black"/>
<path d="M172.5 64.5L174 68.5L173 69L172.5 64.5Z" fill="black"/>
<path d="M160.5 60L161 59V65L160.5 64L160 62L160.5 60Z" fill="black"/>
</svg>
