<svg width="501" height="102" viewBox="0 0 501 102" fill="none" xmlns="http://www.w3.org/2000/svg">
<path d="M203.735 39.5H218.045C221.465 39.5 224.48 40.16 227.09 41.48C229.73 42.77 231.77 44.6 233.21 46.97C234.68 49.34 235.415 52.1 235.415 55.25C235.415 58.4 234.68 61.16 233.21 63.53C231.77 65.9 229.73 67.745 227.09 69.065C224.48 70.355 221.465 71 218.045 71H203.735V39.5ZM217.685 65.015C220.835 65.015 223.34 64.145 225.2 62.405C227.09 60.635 228.035 58.25 228.035 55.25C228.035 52.25 227.09 49.88 225.2 48.14C223.34 46.37 220.835 45.485 217.685 45.485H211.025V65.015H217.685ZM247.123 49.985C247.963 48.815 249.088 47.93 250.498 47.33C251.938 46.73 253.588 46.43 255.448 46.43V52.91C254.668 52.85 254.143 52.82 253.873 52.82C251.863 52.82 250.288 53.39 249.148 54.53C248.008 55.64 247.438 57.32 247.438 59.57V71H240.418V46.79H247.123V49.985ZM283.117 58.985C283.117 59.075 283.072 59.705 282.982 60.875H264.667C264.997 62.375 265.777 63.56 267.007 64.43C268.237 65.3 269.767 65.735 271.597 65.735C272.857 65.735 273.967 65.555 274.927 65.195C275.917 64.805 276.832 64.205 277.672 63.395L281.407 67.445C279.127 70.055 275.797 71.36 271.417 71.36C268.687 71.36 266.272 70.835 264.172 69.785C262.072 68.705 260.452 67.22 259.312 65.33C258.172 63.44 257.602 61.295 257.602 58.895C257.602 56.525 258.157 54.395 259.267 52.505C260.407 50.585 261.952 49.1 263.902 48.05C265.882 46.97 268.087 46.43 270.517 46.43C272.887 46.43 275.032 46.94 276.952 47.96C278.872 48.98 280.372 50.45 281.452 52.37C282.562 54.26 283.117 56.465 283.117 58.985ZM270.562 51.74C268.972 51.74 267.637 52.19 266.557 53.09C265.477 53.99 264.817 55.22 264.577 56.78H276.502C276.262 55.25 275.602 54.035 274.522 53.135C273.442 52.205 272.122 51.74 270.562 51.74ZM296.897 46.43C300.647 46.43 303.527 47.33 305.537 49.13C307.547 50.9 308.552 53.585 308.552 57.185V71H301.982V67.985C300.662 70.235 298.202 71.36 294.602 71.36C292.742 71.36 291.122 71.045 289.742 70.415C288.392 69.785 287.357 68.915 286.637 67.805C285.917 66.695 285.557 65.435 285.557 64.025C285.557 61.775 286.397 60.005 288.077 58.715C289.787 57.425 292.412 56.78 295.952 56.78H301.532C301.532 55.25 301.067 54.08 300.137 53.27C299.207 52.43 297.812 52.01 295.952 52.01C294.662 52.01 293.387 52.22 292.127 52.64C290.897 53.03 289.847 53.57 288.977 54.26L286.457 49.355C287.777 48.425 289.352 47.705 291.182 47.195C293.042 46.685 294.947 46.43 296.897 46.43ZM296.357 66.635C297.557 66.635 298.622 66.365 299.552 65.825C300.482 65.255 301.142 64.43 301.532 63.35V60.875H296.717C293.837 60.875 292.397 61.82 292.397 63.71C292.397 64.61 292.742 65.33 293.432 65.87C294.152 66.38 295.127 66.635 296.357 66.635ZM345.91 46.43C348.94 46.43 351.34 47.33 353.11 49.13C354.91 50.9 355.81 53.57 355.81 57.14V71H348.79V58.22C348.79 56.3 348.385 54.875 347.575 53.945C346.795 52.985 345.67 52.505 344.2 52.505C342.55 52.505 341.245 53.045 340.285 54.125C339.325 55.175 338.845 56.75 338.845 58.85V71H331.825V58.22C331.825 54.41 330.295 52.505 327.235 52.505C325.615 52.505 324.325 53.045 323.365 54.125C322.405 55.175 321.925 56.75 321.925 58.85V71H314.905V46.79H321.61V49.58C322.51 48.56 323.605 47.78 324.895 47.24C326.215 46.7 327.655 46.43 329.215 46.43C330.925 46.43 332.47 46.775 333.85 47.465C335.23 48.125 336.34 49.1 337.18 50.39C338.17 49.13 339.415 48.155 340.915 47.465C342.445 46.775 344.11 46.43 345.91 46.43ZM370.247 71.36C368.237 71.36 366.272 71.12 364.352 70.64C362.432 70.13 360.902 69.5 359.762 68.75L362.102 63.71C363.182 64.4 364.487 64.97 366.017 65.42C367.547 65.84 369.047 66.05 370.517 66.05C373.487 66.05 374.972 65.315 374.972 63.845C374.972 63.155 374.567 62.66 373.757 62.36C372.947 62.06 371.702 61.805 370.022 61.595C368.042 61.295 366.407 60.95 365.117 60.56C363.827 60.17 362.702 59.48 361.742 58.49C360.812 57.5 360.347 56.09 360.347 54.26C360.347 52.73 360.782 51.38 361.652 50.21C362.552 49.01 363.842 48.08 365.522 47.42C367.232 46.76 369.242 46.43 371.552 46.43C373.262 46.43 374.957 46.625 376.637 47.015C378.347 47.375 379.757 47.885 380.867 48.545L378.527 53.54C376.397 52.34 374.072 51.74 371.552 51.74C370.052 51.74 368.927 51.95 368.177 52.37C367.427 52.79 367.052 53.33 367.052 53.99C367.052 54.74 367.457 55.265 368.267 55.565C369.077 55.865 370.367 56.15 372.137 56.42C374.117 56.75 375.737 57.11 376.997 57.5C378.257 57.86 379.352 58.535 380.282 59.525C381.212 60.515 381.677 61.895 381.677 63.665C381.677 65.165 381.227 66.5 380.327 67.67C379.427 68.84 378.107 69.755 376.367 70.415C374.657 71.045 372.617 71.36 370.247 71.36ZM397.709 71.36C395.129 71.36 392.804 70.835 390.734 69.785C388.694 68.705 387.089 67.22 385.919 65.33C384.779 63.44 384.209 61.295 384.209 58.895C384.209 56.495 384.779 54.35 385.919 52.46C387.089 50.57 388.694 49.1 390.734 48.05C392.804 46.97 395.129 46.43 397.709 46.43C400.259 46.43 402.479 46.97 404.369 48.05C406.289 49.1 407.684 50.615 408.554 52.595L403.109 55.52C401.849 53.3 400.034 52.19 397.664 52.19C395.834 52.19 394.319 52.79 393.119 53.99C391.919 55.19 391.319 56.825 391.319 58.895C391.319 60.965 391.919 62.6 393.119 63.8C394.319 65 395.834 65.6 397.664 65.6C400.064 65.6 401.879 64.49 403.109 62.27L408.554 65.24C407.684 67.16 406.289 68.66 404.369 69.74C402.479 70.82 400.259 71.36 397.709 71.36ZM422.36 46.43C426.11 46.43 428.99 47.33 431 49.13C433.01 50.9 434.015 53.585 434.015 57.185V71H427.445V67.985C426.125 70.235 423.665 71.36 420.065 71.36C418.205 71.36 416.585 71.045 415.205 70.415C413.855 69.785 412.82 68.915 412.1 67.805C411.38 66.695 411.02 65.435 411.02 64.025C411.02 61.775 411.86 60.005 413.54 58.715C415.25 57.425 417.875 56.78 421.415 56.78H426.995C426.995 55.25 426.53 54.08 425.6 53.27C424.67 52.43 423.275 52.01 421.415 52.01C420.125 52.01 418.85 52.22 417.59 52.64C416.36 53.03 415.31 53.57 414.44 54.26L411.92 49.355C413.24 48.425 414.815 47.705 416.645 47.195C418.505 46.685 420.41 46.43 422.36 46.43ZM421.82 66.635C423.02 66.635 424.085 66.365 425.015 65.825C425.945 65.255 426.605 64.43 426.995 63.35V60.875H422.18C419.3 60.875 417.86 61.82 417.86 63.71C417.86 64.61 418.205 65.33 418.895 65.87C419.615 66.38 420.59 66.635 421.82 66.635ZM454.679 46.43C456.929 46.43 458.969 46.955 460.799 48.005C462.659 49.025 464.114 50.48 465.164 52.37C466.214 54.23 466.739 56.405 466.739 58.895C466.739 61.385 466.214 63.575 465.164 65.465C464.114 67.325 462.659 68.78 460.799 69.83C458.969 70.85 456.929 71.36 454.679 71.36C451.589 71.36 449.159 70.385 447.389 68.435V79.73H440.369V46.79H447.074V49.58C448.814 47.48 451.349 46.43 454.679 46.43ZM453.464 65.6C455.264 65.6 456.734 65 457.874 63.8C459.044 62.57 459.629 60.935 459.629 58.895C459.629 56.855 459.044 55.235 457.874 54.035C456.734 52.805 455.264 52.19 453.464 52.19C451.664 52.19 450.179 52.805 449.009 54.035C447.869 55.235 447.299 56.855 447.299 58.895C447.299 60.935 447.869 62.57 449.009 63.8C450.179 65 451.664 65.6 453.464 65.6ZM495.153 58.985C495.153 59.075 495.108 59.705 495.018 60.875H476.703C477.033 62.375 477.813 63.56 479.043 64.43C480.273 65.3 481.803 65.735 483.633 65.735C484.893 65.735 486.003 65.555 486.963 65.195C487.953 64.805 488.868 64.205 489.708 63.395L493.443 67.445C491.163 70.055 487.833 71.36 483.453 71.36C480.723 71.36 478.308 70.835 476.208 69.785C474.108 68.705 472.488 67.22 471.348 65.33C470.208 63.44 469.638 61.295 469.638 58.895C469.638 56.525 470.193 54.395 471.303 52.505C472.443 50.585 473.988 49.1 475.938 48.05C477.918 46.97 480.123 46.43 482.553 46.43C484.923 46.43 487.068 46.94 488.988 47.96C490.908 48.98 492.408 50.45 493.488 52.37C494.598 54.26 495.153 56.465 495.153 58.985ZM482.598 51.74C481.008 51.74 479.673 52.19 478.593 53.09C477.513 53.99 476.853 55.22 476.613 56.78H488.538C488.298 55.25 487.638 54.035 486.558 53.135C485.478 52.205 484.158 51.74 482.598 51.74Z" fill="white"/>
<path d="M146.16 44.3063C147.275 41.8701 147.9 39.2062 147.9 36.4286C147.9 24.3616 136.209 14.5714 121.8 14.5714C116.444 14.5714 111.442 15.9375 107.309 18.2598C99.7781 7.33125 85.7222 0 69.6 0C45.5662 0 26.1 16.3018 26.1 36.4286C26.1 37.0433 26.1272 37.658 26.1544 38.2728C10.9294 42.758 0 54.9161 0 69.2143C0 87.3147 17.5359 102 39.15 102H139.2C158.422 102 174 88.954 174 72.8571C174 58.7638 162.037 46.9929 146.16 44.3063Z" fill="white"/>
</svg>
